<svg width="16" height="13" viewBox="0 0 16 13" fill="none" xmlns="http://www.w3.org/2000/svg">
<g id="yama-youtube">
<rect width="16" height="12.2353" transform="translate(0 0.540527)" fill="white"/>
<path id="Vector" d="M15.2976 6.62728C15.2976 6.59088 15.2976 6.55049 15.2976 6.50311C15.2976 6.37096 15.2926 6.22236 15.2891 6.06328C15.2757 5.60749 15.2528 5.15418 15.2173 4.72631C15.1852 4.23781 15.1119 3.75289 14.9984 3.27666C14.8949 2.89158 14.6921 2.5404 14.4105 2.25813C14.1288 1.97585 13.778 1.77235 13.3932 1.66791C12.5215 1.50496 11.6369 1.4215 10.7502 1.41857C10.1448 1.39563 9.49602 1.38117 8.84823 1.37269C8.62133 1.3692 8.40988 1.36771 8.22039 1.36621H7.74116C7.55165 1.36621 7.34221 1.3692 7.11332 1.37269C6.46504 1.38117 5.81675 1.39563 5.21135 1.41857C4.32469 1.42288 3.44017 1.50632 2.56835 1.66791C2.18366 1.77213 1.83312 1.9756 1.55183 2.25795C1.27054 2.54029 1.06838 2.89158 0.965593 3.27666C0.851467 3.75276 0.778228 4.23775 0.746669 4.72631C0.711263 5.15418 0.688324 5.60749 0.674859 6.06328C0.669873 6.22236 0.668376 6.37046 0.666382 6.50311C0.666382 6.55299 0.666382 6.59088 0.666382 6.62728V6.71855C0.666382 6.75494 0.666382 6.79534 0.666382 6.84272C0.666382 6.97487 0.671368 7.12397 0.674859 7.28255C0.688324 7.73834 0.711263 8.19165 0.746669 8.61951C0.779288 9.10814 0.852515 9.59319 0.965593 10.0697C1.06876 10.4549 1.27136 10.8063 1.5531 11.0885C1.83484 11.3708 2.18581 11.574 2.57084 11.6779C3.44241 11.8413 4.32709 11.9248 5.21385 11.9273C5.82024 11.9502 6.46802 11.9647 7.11581 11.9731C7.34271 11.9766 7.55415 11.9781 7.74365 11.9801H8.22288C8.41238 11.9801 8.62183 11.9766 8.85072 11.9731C9.49903 11.9647 10.1473 11.9502 10.7527 11.9273C11.6394 11.923 12.5239 11.8395 13.3957 11.6779C13.7809 11.5744 14.1321 11.3712 14.4139 11.0889C14.6955 10.8065 14.8981 10.455 15.001 10.0697C15.1154 9.5933 15.1886 9.10795 15.2199 8.61901C15.2553 8.19115 15.2782 7.73784 15.2917 7.28205C15.2967 7.12397 15.2982 6.97487 15.3002 6.84222C15.3002 6.79235 15.3002 6.75445 15.3002 6.71805L15.2976 6.62728ZM14.1223 6.71206C14.1223 6.74597 14.1223 6.78388 14.1223 6.82775C14.1223 6.95541 14.1173 7.09605 14.1138 7.24764C14.1028 7.68149 14.0798 8.11635 14.0455 8.51928C14.0184 8.9391 13.9574 9.35602 13.863 9.76597C13.8129 9.95158 13.7151 10.1208 13.5794 10.2569C13.4436 10.393 13.2745 10.4911 13.089 10.5414C12.3021 10.6749 11.5059 10.7447 10.7078 10.7504C10.1133 10.7733 9.47306 10.7878 8.83476 10.7963C8.61135 10.7992 8.4034 10.8013 8.2174 10.8013H7.74764L7.13027 10.7963C6.49196 10.7878 5.85315 10.7733 5.25724 10.7504C4.45922 10.7438 3.663 10.6739 2.87603 10.5414C2.69062 10.491 2.52165 10.3928 2.38594 10.2568C2.25024 10.1207 2.15255 9.95153 2.10258 9.76597C2.00762 9.35611 1.94641 8.93915 1.91956 8.51928C1.88566 8.11635 1.86371 7.68199 1.85125 7.24764C1.84626 7.09804 1.84427 6.95342 1.84277 6.82775C1.84277 6.78388 1.84277 6.74498 1.84277 6.71206V6.63327C1.84277 6.59936 1.84277 6.56146 1.84277 6.51758C1.84277 6.38992 1.84776 6.24979 1.85125 6.09819C1.86221 5.66334 1.88516 5.22949 1.91956 4.82605C1.94632 4.40617 2.00753 3.9892 2.10258 3.57936C2.15244 3.39365 2.25022 3.2243 2.38615 3.08829C2.52207 2.95228 2.69135 2.85438 2.87703 2.8044C3.66391 2.67127 4.46019 2.6014 5.25822 2.59546C5.85265 2.57252 6.49296 2.55806 7.13127 2.55008C7.35468 2.54659 7.56263 2.54509 7.74863 2.54509H8.2154L8.83276 2.55008C9.47108 2.55756 10.1099 2.57252 10.7058 2.59546C11.5038 2.60206 12.3001 2.67193 13.087 2.8044C13.2724 2.85509 13.4414 2.95335 13.5772 3.08946C13.713 3.22557 13.8108 3.39478 13.8609 3.58035C13.9554 3.99029 14.0165 4.40723 14.0435 4.82705C14.0774 5.23048 14.0993 5.66434 14.1118 6.09918C14.1173 6.24879 14.1188 6.39241 14.1203 6.51858C14.1203 6.56245 14.1203 6.60235 14.1203 6.63427L14.1223 6.71206ZM6.52887 8.86087L10.3188 6.65621L6.52887 4.48446V8.86087Z" fill="#0D0D0D"/>
</g>
</svg>
