<svg width="12" height="15" viewBox="0 0 12 15" fill="none" xmlns="http://www.w3.org/2000/svg">
<g id="yama-pinterest" clip-path="url(#clip0_4_233)">
<rect width="10.2353" height="13.3846" transform="translate(0.882324 0.96582)" fill="white"/>
<path id="Vector" d="M9.364 2.8024C8.521 1.99309 7.35433 1.54736 6.07896 1.54736C4.13078 1.54736 2.93256 2.34594 2.27044 3.01584C1.45442 3.84141 0.986511 4.93761 0.986511 6.02341C0.986511 7.3867 1.55675 8.43308 2.51168 8.82236C2.57579 8.84862 2.6403 8.86184 2.70354 8.86184C2.905 8.86184 3.06463 8.73003 3.11993 8.51859C3.15217 8.39729 3.22685 8.09802 3.25933 7.96811C3.32885 7.71156 3.27269 7.58815 3.12108 7.40949C2.84489 7.0827 2.71627 6.69626 2.71627 6.19334C2.71627 4.69948 3.82862 3.11183 5.89025 3.11183C7.52607 3.11183 8.54222 4.04157 8.54222 5.53818C8.54222 6.4826 8.3388 7.35723 7.96929 8.00105C7.71254 8.44841 7.26103 8.98167 6.56792 8.98167C6.2682 8.98167 5.99894 8.85854 5.82906 8.64389C5.66858 8.44097 5.61566 8.17885 5.68022 7.90565C5.75314 7.59699 5.85258 7.27502 5.94881 6.96376C6.12431 6.39527 6.29023 5.85833 6.29023 5.42994C6.29023 4.6972 5.83975 4.20485 5.16938 4.20485C4.31743 4.20485 3.64998 5.07015 3.64998 6.17479C3.64998 6.71655 3.79395 7.12176 3.85914 7.27734C3.75181 7.73206 3.11395 10.4356 2.99296 10.9454C2.92299 11.243 2.50156 13.5935 3.1991 13.7808C3.98284 13.9915 4.68339 11.7022 4.7547 11.4435C4.81249 11.2331 5.01469 10.4376 5.1386 9.9486C5.51695 10.3131 6.12613 10.5594 6.71888 10.5594C7.83632 10.5594 8.84129 10.0566 9.54863 9.14363C10.2346 8.25808 10.6125 7.02383 10.6125 5.6684C10.6124 4.60877 10.1573 3.56412 9.364 2.8024Z" fill="#0D0D0D"/>
</g>
<defs>
<clipPath id="clip0_4_233">
<rect width="10.2353" height="13.3846" fill="white" transform="translate(0.882324 0.96582)"/>
</clipPath>
</defs>
</svg>
