<svg width="14" height="15" viewBox="0 0 14 15" fill="none" xmlns="http://www.w3.org/2000/svg">
<g id="yama-ig">
<path id="Vector" d="M7.20374 9.77758C6.64544 9.77758 6.11 9.55581 5.71523 9.16103C5.32045 8.76625 5.09866 8.23082 5.09866 7.67252C5.0988 7.11431 5.32065 6.579 5.71541 6.18434C6.11017 5.78968 6.64553 5.56797 7.20374 5.56797C7.76195 5.56797 8.29731 5.78968 8.69207 6.18434C9.08683 6.579 9.30867 7.11431 9.30881 7.67252C9.30881 8.23082 9.08703 8.76625 8.69225 9.16103C8.29748 9.55581 7.76204 9.77758 7.20374 9.77758ZM7.20374 4.51465C6.3664 4.51478 5.5634 4.84747 4.97131 5.43956C4.37922 6.03165 4.04653 6.83465 4.04639 7.67199C4.04653 8.50933 4.37922 9.31234 4.97131 9.90442C5.5634 10.4965 6.3664 10.8292 7.20374 10.8294C8.04108 10.8292 8.84408 10.4965 9.43618 9.90442C10.0283 9.31234 10.3609 8.50933 10.3611 7.67199C10.3609 6.83465 10.0283 6.03165 9.43618 5.43956C8.84408 4.84747 8.04108 4.51478 7.20374 4.51465Z" fill="#0D0D0D"/>
<path id="Vector_2" d="M12.4658 11.8827C12.4658 12.1618 12.3549 12.4295 12.1576 12.6268C11.9603 12.8242 11.6926 12.9351 11.4135 12.9351H2.99375C2.71462 12.9351 2.44691 12.8242 2.24949 12.6269C2.05206 12.4296 1.94109 12.1619 1.94095 11.8827V3.46299C1.94095 3.18377 2.05187 2.91598 2.24931 2.71854C2.44674 2.5211 2.71453 2.41019 2.99375 2.41019H11.4135C11.5518 2.41019 11.6886 2.43742 11.8164 2.49034C11.9441 2.54325 12.0601 2.62081 12.1578 2.71858C12.2555 2.81634 12.333 2.9324 12.3858 3.06013C12.4387 3.18786 12.4659 3.32476 12.4658 3.46299V11.8827ZM11.4135 1.35948H2.99375C2.43545 1.35948 1.90001 1.58126 1.50523 1.97604C1.11046 2.37082 0.888672 2.90624 0.888672 3.46454V11.8843C0.888811 12.4425 1.11066 12.9778 1.50542 13.3725C1.90018 13.7671 2.43554 13.9889 2.99375 13.9889H11.4135C11.9718 13.9889 12.507 13.7671 12.9018 13.3725C13.2966 12.9778 13.5185 12.4425 13.5186 11.8843V3.46299C13.5186 2.90468 13.2968 2.36925 12.902 1.97448C12.5072 1.5797 11.9718 1.35791 11.4135 1.35791" fill="#0D0D0D"/>
</g>
</svg>
