<svg width="109" height="21" viewBox="0 0 109 21" fill="none" xmlns="http://www.w3.org/2000/svg">
<g id="yama-star 1">
<path id="Vector" d="M9.65429 1.17468L11.8218 7.84563H18.8361L13.1614 11.9685L15.3289 18.6395L9.65429 14.5166L3.97964 18.6395L6.14716 11.9685L0.472511 7.84563H7.48676L9.65429 1.17468Z" fill="#242424"/>
<path id="Vector_2" d="M32.0771 1.17468L34.2447 7.84563H41.2589L35.5843 11.9685L37.7518 18.6395L32.0771 14.5166L26.4025 18.6395L28.57 11.9685L22.8954 7.84563H29.9096L32.0771 1.17468Z" fill="#242424"/>
<path id="Vector_3" d="M54.5 1.17468L56.6675 7.84563H63.6818L58.0071 11.9685L60.1746 18.6395L54.5 14.5166L48.8253 18.6395L50.9929 11.9685L45.3182 7.84563H52.3325L54.5 1.17468Z" fill="#242424"/>
<path id="Vector_4" d="M76.9228 1.17468L79.0904 7.84563H86.1046L80.43 11.9685L82.5975 18.6395L76.9228 14.5166L71.2482 18.6395L73.4157 11.9685L67.7411 7.84563H74.7553L76.9228 1.17468Z" fill="#242424"/>
<path id="Vector_5" d="M99.3457 1.17468L101.513 7.84563H108.527L102.853 11.9685L105.02 18.6395L99.3457 14.5166L93.671 18.6395L95.8386 11.9685L90.1639 7.84563H97.1782L99.3457 1.17468Z" fill="#242424"/>
</g>
</svg>
